<svg width="96" height="95" viewBox="0 0 96 95" fill="none" xmlns="http://www.w3.org/2000/svg">
<path d="M0.745117 0H95.7451V95H0.745117V0Z" fill="#171719"/>
<path d="M42.0693 53.6757V41.3243H89.3712V53.6757H42.0693Z" fill="white"/>
<path d="M42.0693 71.5714V59.22L81.3056 59.5L77.0198 71.5714H42.0693Z" fill="white"/>
<path d="M89.3711 41.7447H77.0197L77.0198 71.5714L77.0197 89.0467H89.3711V70.4114L81.2983 65.4002L81.3056 65.3957L81.2983 65.3912L89.3711 60.38V41.7447Z" fill="white"/>
<path d="M42.0693 89.0467V76.6953H89.3712L89.3711 89.0467L42.0693 89.0467Z" fill="white"/>
<path d="M42.0697 41.7447H54.421V89.0467L42.0693 89.0467L42.0697 41.7447Z" fill="white"/>
<path d="M7.11927 6.37366H19.4706V53.6756H7.11927V6.37366Z" fill="white"/>
<path d="M24.5942 6.37372H36.9455V53.6757H24.5942V6.37372Z" fill="white"/>
<path d="M42.0693 6.37372H54.4207V53.6757L42.0693 53.6757L42.0693 6.37372Z" fill="white"/>
<path d="M7.11896 18.725L7.11927 6.37366L54.4207 6.37372L54.4209 18.725H7.11896Z" fill="white"/>
</svg>
