<svg width="182" height="31" viewBox="0 0 182 31" fill="none" xmlns="http://www.w3.org/2000/svg">
<path d="M0.176129 30.6921C0.0587097 30.6921 0 30.6187 0 30.4719L0.0880645 0.221734C0.0880645 0.104314 0.146774 0.0456042 0.264194 0.0456042H9.15871C10.7439 0.0456042 12.1969 0.441895 13.5179 1.23448C14.8682 1.9977 15.9397 3.0398 16.7323 4.36077C17.5248 5.65238 17.9211 7.12012 17.9211 8.76399C17.9211 9.85012 17.7597 10.8335 17.4368 11.7142C17.1139 12.5654 16.7323 13.2993 16.2919 13.9158C15.8516 14.5029 15.4553 14.9432 15.1031 15.2367C16.6882 16.998 17.4808 19.0675 17.4808 21.4453L17.5248 30.4719C17.5248 30.6187 17.4515 30.6921 17.3047 30.6921H12.329C12.2116 30.6921 12.1529 30.648 12.1529 30.56V21.4453C12.1529 20.3885 11.7713 19.4785 11.0081 18.7153C10.2742 17.9227 9.36419 17.5264 8.27806 17.5264H5.37194L5.3279 30.4719C5.3279 30.6187 5.26919 30.6921 5.15177 30.6921H0.176129ZM5.37194 12.2425H9.15871C10.0687 12.2425 10.876 11.905 11.5805 11.2298C12.285 10.5546 12.6373 9.7327 12.6373 8.76399C12.6373 7.82464 12.285 7.01738 11.5805 6.34222C10.9053 5.66706 10.0981 5.32948 9.15871 5.32948H5.37194V12.2425Z" fill="#20802F"/>
<path d="M21.4183 30.6921C21.3008 30.6921 21.2421 30.6187 21.2421 30.4719L21.2862 0.221734C21.2862 0.104314 21.3449 0.0456042 21.4623 0.0456042H35.5966C35.7141 0.0456042 35.7728 0.118991 35.7728 0.265765V5.19738C35.7728 5.3148 35.7141 5.37351 35.5966 5.37351H26.57V12.2425H35.5966C35.7141 12.2425 35.7728 12.3013 35.7728 12.4187L35.8168 17.3943C35.8168 17.5117 35.7581 17.5704 35.6407 17.5704H26.57V25.2761H35.6407C35.7581 25.2761 35.8168 25.3495 35.8168 25.4963V30.5159C35.8168 30.6334 35.7581 30.6921 35.6407 30.6921H21.4183Z" fill="#20802F"/>
<path d="M39.9524 30.6921C39.8056 30.6921 39.7322 30.6187 39.7322 30.4719L39.8203 0.221734C39.8203 0.104314 39.879 0.0456042 39.9964 0.0456042H48.4506C51.1513 0.0456042 53.2795 0.86754 54.8353 2.51141C56.4205 4.15528 57.213 6.38625 57.213 9.20431C57.213 11.2885 56.8021 13.0938 55.9801 14.6203C55.1582 16.1467 54.0868 17.3209 52.7658 18.1429C51.4448 18.9648 50.0064 19.3758 48.4506 19.3758H45.1042V30.4719C45.1042 30.6187 45.0308 30.6921 44.884 30.6921H39.9524ZM45.1042 14.0479H48.4506C49.39 14.0479 50.1972 13.6075 50.8724 12.7269C51.5769 11.8169 51.9292 10.6427 51.9292 9.20431C51.9292 8.05948 51.6209 7.12012 51.0045 6.38625C50.388 5.65238 49.5367 5.28544 48.4506 5.28544L45.1042 5.32948V14.0479Z" fill="#20802F"/>
<path d="M60.3765 30.6921C60.2591 30.6921 60.2004 30.6187 60.2004 30.4719L60.2444 0.221734C60.2444 0.104314 60.3031 0.0456042 60.4205 0.0456042H74.5549C74.6723 0.0456042 74.731 0.118991 74.731 0.265765V5.19738C74.731 5.3148 74.6723 5.37351 74.5549 5.37351H65.5283V12.2425H74.5549C74.6723 12.2425 74.731 12.3013 74.731 12.4187L74.775 17.3943C74.775 17.5117 74.7163 17.5704 74.5989 17.5704H65.5283V25.2761H74.5989C74.7163 25.2761 74.775 25.3495 74.775 25.4963V30.5159C74.775 30.6334 74.7163 30.6921 74.5989 30.6921H60.3765Z" fill="#20802F"/>
<path d="M76.7634 30.4719L82.2234 0.221734C82.2527 0.104314 82.3261 0.0456042 82.4435 0.0456042H88.8282C88.9456 0.0456042 89.019 0.104314 89.0484 0.221734L94.2882 30.4719C94.3176 30.6187 94.2589 30.6921 94.1121 30.6921H89.2245C89.1071 30.6921 89.0337 30.6187 89.0043 30.4719L88.52 27.2575H82.5316L82.0472 30.4719C82.0179 30.6187 81.9445 30.6921 81.8271 30.6921H76.9395C76.8221 30.6921 76.7634 30.6187 76.7634 30.4719ZM83.4122 22.5461H87.6393L85.834 10.173L85.5698 8.54383L85.3937 10.173L83.4122 22.5461Z" fill="#20802F"/>
<path d="M99.3478 30.6921C99.2304 30.6921 99.1717 30.6187 99.1717 30.4719V5.37351H93.4475C93.3007 5.37351 93.2273 5.30012 93.2273 5.15335L93.2713 0.221734C93.2713 0.104314 93.33 0.0456042 93.4475 0.0456042H110.18C110.326 0.0456042 110.4 0.104314 110.4 0.221734V5.15335C110.4 5.30012 110.341 5.37351 110.224 5.37351H104.456L104.5 30.4719C104.5 30.6187 104.441 30.6921 104.323 30.6921H99.3478Z" fill="#20802F"/>
<path d="M112.751 30.6921C112.633 30.6921 112.575 30.6187 112.575 30.4719L112.619 0.221734C112.619 0.104314 112.677 0.0456042 112.795 0.0456042H126.929C127.047 0.0456042 127.105 0.118991 127.105 0.265765V5.19738C127.105 5.3148 127.047 5.37351 126.929 5.37351H117.903V12.2425H126.929C127.047 12.2425 127.105 12.3013 127.105 12.4187L127.149 17.3943C127.149 17.5117 127.091 17.5704 126.973 17.5704H117.903V25.2761H126.973C127.091 25.2761 127.149 25.3495 127.149 25.4963V30.5159C127.149 30.6334 127.091 30.6921 126.973 30.6921H112.751Z" fill="#20802F"/>
<path d="M131.285 30.6921C131.138 30.6921 131.065 30.6187 131.065 30.4719L131.153 0.221734C131.153 0.104314 131.212 0.0456042 131.329 0.0456042L139.563 0.00157254C141.178 -0.0277819 142.645 0.353831 143.966 1.14641C145.317 1.93899 146.388 3.01044 147.181 4.36077C147.973 5.68173 148.369 7.14948 148.369 8.76399V21.4013C148.369 23.1038 147.958 24.6596 147.137 26.0687C146.315 27.4483 145.214 28.5492 143.834 29.3711C142.454 30.193 140.899 30.6187 139.167 30.648L131.285 30.6921ZM136.437 25.2761H139.167C140.253 25.2761 141.163 24.8945 141.897 24.1313C142.66 23.368 143.042 22.458 143.042 21.4013V8.71996C143.042 7.78061 142.689 6.97335 141.985 6.29819C141.31 5.59367 140.502 5.25609 139.563 5.28544L136.481 5.32948L136.437 25.2761Z" fill="#20802F"/>
<path d="M152.01 30.6921C151.893 30.6921 151.834 30.6187 151.834 30.4719L151.878 0.265765C151.878 0.118991 151.951 0.0456042 152.098 0.0456042H156.986C157.132 0.0456042 157.206 0.118991 157.206 0.265765L157.162 25.2761H166.232C166.379 25.2761 166.453 25.3495 166.453 25.4963V30.4719C166.453 30.6187 166.379 30.6921 166.232 30.6921H152.01Z" fill="#20802F"/>
<path d="M169.861 30.6921C169.773 30.6921 169.729 30.6334 169.729 30.5159L169.773 18.0108L163.873 0.221734C163.843 0.104314 163.887 0.0456042 164.005 0.0456042H168.892C169.039 0.0456042 169.127 0.104314 169.156 0.221734L172.415 12.0664L175.717 0.221734C175.747 0.104314 175.82 0.0456042 175.937 0.0456042H180.869C180.986 0.0456042 181.03 0.104314 181.001 0.221734L175.057 17.8346L175.101 30.5159C175.101 30.6334 175.042 30.6921 174.925 30.6921H169.861Z" fill="#20802F"/>
</svg>
